<?xml version="1.0" standalone="no"?>
<!DOCTYPE svg PUBLIC "-//W3C//DTD SVG 20010904//EN"
 "http://www.w3.org/TR/2001/REC-SVG-20010904/DTD/svg10.dtd">
<svg version="1.0" xmlns="http://www.w3.org/2000/svg"
 width="1584.000000pt" height="1224.000000pt" viewBox="0 0 1584.000000 1224.000000"
 preserveAspectRatio="xMidYMid meet">

<g transform="translate(0.000000,1224.000000) scale(0.100000,-0.100000)"
fill="#000000" stroke="none">
<path d="M5358 9210 c-45 -13 -85 -48 -129 -110 -23 -33 -45 -60 -50 -60 -4 0
-33 -23 -64 -52 -91 -83 -133 -192 -84 -219 12 -6 29 -9 39 -6 12 3 20 -2 23
-15 5 -16 13 -19 44 -16 37 3 39 5 56 61 23 70 58 100 148 123 60 16 95 16
529 0 256 -9 503 -18 549 -21 96 -5 284 11 313 26 14 8 33 8 65 -1 39 -9 48
-9 64 6 26 23 24 60 -3 78 -22 14 -132 41 -350 85 -252 52 -540 92 -833 116
-204 16 -276 18 -317 5z m735 -157 c-7 -2 -19 -2 -25 0 -7 3 -2 5 12 5 14 0
19 -2 13 -5z m187 -27 c39 -8 53 -14 35 -14 -16 -1 -70 7 -120 18 -70 15 -78
18 -35 14 30 -3 84 -11 120 -18z"/>
<path d="M9345 9029 c-281 -20 -571 -63 -880 -130 -149 -33 -185 -48 -185 -79
0 -11 -8 -20 -21 -22 -32 -5 -45 -31 -31 -62 15 -33 25 -33 242 3 356 60 805
97 1092 89 139 -4 146 -5 238 -43 89 -36 103 -46 210 -149 123 -119 197 -165
301 -187 30 -7 61 -18 70 -26 36 -30 89 -7 89 39 0 17 -238 289 -368 420 -71
72 -111 104 -156 125 -60 28 -64 28 -271 29 -115 1 -264 -2 -330 -7z m348 -96
c-7 -2 -19 -2 -25 0 -7 3 -2 5 12 5 14 0 19 -2 13 -5z m197 -13 c12 -8 9 -10
-12 -10 -15 0 -30 5 -33 10 -8 13 25 13 45 0z"/>
<path d="M5637 7896 c-29 -15 -36 -70 -10 -84 10 -6 77 -18 148 -28 254 -37
870 -19 956 27 25 13 24 51 -1 74 -19 17 -25 17 -146 1 -256 -34 -599 -31
-844 8 -59 9 -86 10 -103 2z"/>
<path d="M8322 7808 c-7 -7 -12 -24 -12 -40 0 -23 10 -32 64 -63 77 -43 202
-90 300 -112 151 -35 516 -16 736 38 107 26 130 40 130 79 0 46 -23 51 -121
25 -190 -51 -496 -77 -654 -56 -107 14 -246 59 -333 107 -67 36 -91 41 -110
22z"/>
<path d="M7110 7575 c-9 -11 -10 -115 -5 -452 7 -442 -8 -1426 -25 -1656 -5
-65 -7 -124 -4 -130 2 -7 28 -25 57 -40 28 -15 93 -62 142 -103 114 -96 160
-123 227 -133 83 -14 155 4 357 85 320 130 434 203 495 314 37 67 47 161 21
190 -20 22 -55 26 -73 8 -7 -7 -12 -31 -12 -55 0 -125 -97 -210 -377 -330
-345 -148 -398 -148 -573 -3 -41 34 -94 73 -118 88 l-43 27 5 85 c28 437 33
2073 6 2105 -16 19 -64 19 -80 0z"/>
<path d="M7436 4935 c-11 -12 -13 -31 -9 -89 4 -50 0 -106 -13 -174 -16 -93
-19 -100 -37 -91 -22 12 -67 -12 -74 -40 -3 -13 -87 -34 -426 -106 -296 -63
-427 -95 -439 -107 -10 -10 -31 -18 -46 -18 -15 0 -33 -5 -40 -12 -15 -15 -16
-65 0 -74 6 -4 136 -8 287 -9 152 -1 355 -8 451 -15 235 -17 656 -18 795 -2
216 26 501 86 640 135 39 13 40 16 43 63 2 27 9 52 15 56 9 6 9 8 0 8 -8 0
-13 13 -13 29 l0 29 -147 8 c-335 20 -519 8 -670 -43 -66 -22 -78 -23 -135
-13 -35 6 -92 25 -128 43 -59 29 -62 32 -37 35 21 3 32 12 42 35 22 53 38 182
33 259 -5 59 -10 75 -28 90 -27 22 -44 23 -64 3z m-56 -475 c39 -28 129 -67
173 -75 20 -4 43 -16 53 -26 24 -27 55 -24 132 12 112 53 218 69 447 68 110
-1 225 -4 255 -8 l55 -6 -115 -32 c-286 -80 -489 -106 -825 -107 -228 -1 -777
22 -750 31 6 1 124 28 263 58 140 30 258 57 263 61 5 3 9 14 9 25 0 24 5 24
40 -1z"/>
<path d="M8966 4555 c8 -37 14 -45 14 -19 0 10 -5 26 -10 34 -8 11 -9 7 -4
-15z"/>
<path d="M8730 4515 c-14 -8 -20 -14 -15 -14 6 0 21 6 35 14 14 8 21 14 15 14
-5 0 -21 -6 -35 -14z"/>
<path d="M8670 4490 c-8 -5 -10 -10 -5 -10 6 0 17 5 25 10 8 5 11 10 5 10 -5
0 -17 -5 -25 -10z"/>
<path d="M8900 4480 c-19 -11 -30 -19 -25 -19 6 0 26 8 45 19 19 11 31 19 25
19 -5 0 -26 -8 -45 -19z"/>
<path d="M8460 3919 c-324 -61 -719 -87 -1072 -69 -130 6 -242 9 -248 5 -15
-10 -12 -61 5 -75 9 -7 57 -17 108 -21 154 -14 608 -10 791 6 157 14 478 59
512 72 9 3 14 21 14 54 0 27 -3 48 -7 48 -5 -1 -51 -10 -103 -20z"/>
<path d="M6470 2185 c0 -103 4 -165 10 -165 6 0 10 45 10 116 0 63 3 113 8
110 4 -2 25 -54 47 -115 30 -84 44 -111 57 -111 16 0 18 14 18 165 0 140 -2
165 -15 165 -12 0 -15 -20 -15 -117 0 -64 -4 -113 -8 -108 -5 6 -26 58 -47
118 -56 153 -65 144 -65 -58z"/>
<path d="M7124 2333 c2 -10 10 -19 19 -21 10 -2 14 3 13 15 -2 10 -10 19 -19
21 -10 2 -14 -3 -13 -15z"/>
<path d="M7958 2344 c-4 -8 -4 -304 1 -326 0 -5 8 -8 17 -8 13 0 15 11 12 65
-2 55 0 65 13 65 11 0 25 -21 42 -62 18 -45 31 -64 45 -66 20 -3 19 0 -9 67
l-30 70 20 20 c39 39 39 121 1 156 -21 19 -104 33 -112 19z m91 -50 c28 -35
26 -69 -4 -99 -42 -43 -53 -34 -57 46 -2 39 -1 73 1 75 12 12 42 1 60 -22z"/>
<path d="M8468 2303 c-2 -27 -2 -101 0 -165 2 -91 6 -118 17 -118 7 0 12 8 10
18 -2 9 -4 83 -4 165 -1 85 -5 147 -10 147 -6 0 -11 -21 -13 -47z"/>
<path d="M8545 2340 c-7 -12 2 -30 16 -30 5 0 9 9 9 20 0 21 -15 27 -25 10z"/>
<path d="M6667 2263 c-11 -10 -8 -202 3 -224 9 -15 21 -18 70 -17 l60 2 0 123
c0 103 -2 123 -15 123 -12 0 -15 -17 -15 -89 0 -101 -11 -141 -38 -141 -35 0
-42 21 -42 127 0 94 -5 115 -23 96z"/>
<path d="M6847 2263 c-4 -3 -7 -62 -7 -130 0 -103 2 -123 15 -123 12 0 15 17
15 89 0 104 11 141 40 141 29 0 40 -37 40 -141 0 -71 3 -89 15 -89 11 0 15 21
17 106 2 87 6 109 20 117 12 8 21 7 32 -2 13 -11 16 -35 16 -117 0 -86 3 -104
15 -104 22 0 22 206 -1 238 -18 26 -50 28 -77 5 -18 -17 -19 -17 -28 0 -12 20
-49 23 -68 5 -11 -10 -14 -10 -18 0 -5 13 -16 16 -26 5z"/>
<path d="M7130 2146 c0 -94 3 -126 13 -126 16 0 14 243 -2 248 -8 3 -11 -38
-11 -122z"/>
<path d="M7207 2263 c-4 -3 -7 -62 -7 -130 0 -103 2 -123 15 -123 12 0 15 17
15 89 0 103 11 141 39 141 32 0 41 -31 41 -134 0 -79 3 -96 15 -96 12 0 15 18
15 103 0 62 -5 112 -13 127 -14 29 -51 38 -74 18 -13 -10 -17 -10 -20 0 -5 13
-16 16 -26 5z"/>
<path d="M7407 2252 c-35 -39 -39 -179 -6 -218 6 -8 29 -14 51 -14 35 0 40 3
54 35 17 41 18 119 3 164 -18 51 -71 68 -102 33z m70 -42 c27 -54 9 -161 -29
-168 -24 -5 -41 35 -41 98 0 91 39 131 70 70z"/>
<path d="M7567 2263 c-11 -10 -8 -202 3 -224 9 -15 21 -18 70 -17 l60 2 0 123
c0 103 -2 123 -15 123 -12 0 -15 -17 -15 -89 0 -101 -11 -141 -38 -141 -35 0
-42 21 -42 127 0 94 -5 115 -23 96z"/>
<path d="M7746 2248 c-26 -36 -19 -65 25 -113 53 -58 52 -91 -3 -89 -25 1 -38
-3 -38 -11 0 -27 69 -34 94 -9 29 28 20 75 -24 128 -48 58 -49 81 -2 81 44 0
40 29 -5 33 -23 2 -35 -3 -47 -20z"/>
<path d="M8151 2244 c-21 -27 -27 -58 -22 -129 5 -79 45 -116 106 -101 40 10
32 36 -9 29 -27 -4 -36 -1 -50 18 -9 13 -16 34 -16 46 0 21 5 23 51 23 l52 0
-5 50 c-8 85 -64 118 -107 64z m69 -23 c5 -11 10 -31 10 -45 0 -23 -4 -26 -35
-26 -31 0 -35 3 -35 26 0 33 17 64 35 64 8 0 19 -9 25 -19z"/>
<path d="M8317 2263 c-17 -16 -5 -29 22 -25 21 3 33 -2 45 -19 25 -36 20 -49
-18 -49 -57 0 -88 -50 -69 -113 9 -31 10 -32 69 -33 l61 -1 -2 105 c-2 96 -4
107 -25 124 -22 18 -70 24 -83 11z m83 -153 c0 -34 -19 -70 -38 -70 -44 0 -59
67 -20 94 26 18 58 5 58 -24z"/>
<path d="M8550 2147 c0 -70 3 -127 8 -127 9 0 8 237 -1 246 -4 4 -7 -50 -7
-119z"/>
</g>
</svg>
